<svg xmlns="http://www.w3.org/2000/svg" viewBox="0 0 64 64">
  <rect width="64" height="64" rx="14" fill="#1B2838"/>
  <circle cx="32" cy="32" r="18" fill="#FFD93D"/>
  <path d="M14 32a18 18 0 0 1 36 0" stroke="#1B2838" stroke-width="1.5" fill="none"/>
  <path d="M50 32a18 18 0 0 1-36 0" stroke="#1B2838" stroke-width="1.5" fill="none"/>
  <g stroke="#C72030" stroke-width="1.2" fill="none" stroke-linecap="round">
    <path d="M19 25l3-1.5M19 28l3-1.5M19 31l3-1.5M19 34l3-1.5M19 37l3-1.5M19 40l3-1.5"/>
    <path d="M45 25l-3-1.5M45 28l-3-1.5M45 31l-3-1.5M45 34l-3-1.5M45 37l-3-1.5M45 40l-3-1.5"/>
  </g>
</svg>
